<svg xmlns="http://www.w3.org/2000/svg" id="images" viewBox="0 0 128 128"><defs><style>.cls-1,.cls-2{fill:none;stroke:#fff;stroke-miterlimit:10}.cls-1{stroke-width:2px}.cls-3{fill:#407f47}.cls-4{fill:#fff}</style></defs><title>alert_</title><ellipse cx="67.78" cy="65.088" class="cls-1" rx="54.62" ry="15.356" transform="translate(-13.579 18.064) rotate(-13.812)"/><ellipse cx="67.78" cy="65.088" class="cls-2" rx="45.96" ry="11.522" transform="translate(-13.579 18.064) rotate(-13.812)"/><circle cx="31.433" cy="74.197" r="1.964" class="cls-3"/><circle cx="79.248" cy="46.555" r="1.551" class="cls-4"/><circle cx="105.664" cy="110.56" r="3.254" class="cls-4"/><circle cx="15.561" cy="85.646" r="2.468" class="cls-4"/><circle cx="61.156" cy="19.959" r="1.369" class="cls-4"/><circle cx="68.636" cy="62.01" r="34.569" class="cls-3"/><circle cx="101.763" cy="9.632" r=".775" class="cls-3"/><path d="M42.641,107.205A12.859,12.859,0,1,1,29.8,94.358,12.944,12.944,0,0,1,42.641,107.205Z" class="cls-3"/><circle cx="42.641" cy="31.074" r="1.051" class="cls-4"/><path d="M112.41,54.115c1.52,6.18-17.231,16.1-41.879,22.161S24.669,82.24,23.149,76.06" class="cls-2"/><path d="M120.82,52.048C122.845,60.283,100.739,72.8,71.446,80s-54.682,6.364-56.707-1.871" class="cls-1"/><circle cx="22.651" cy="53.877" r="1.051" class="cls-4"/><circle cx="26.524" cy="50.691" r=".686" class="cls-4"/><circle cx="29.025" cy="52.264" r=".443" class="cls-4"/><circle cx="92.852" cy="30.447" r="1.21" class="cls-3"/><circle cx="113.712" cy="100.605" r="1.043" class="cls-3"/><path d="M42.641,107.205a12.944,12.944,0,0,1-.241,2.459c-4.063,3.053-4.492-8.433-10.471-7.137-7.407,1.606-8.173-1.449-6.7-7.335a12.982,12.982,0,0,1,4.568-.834A12.848,12.848,0,0,1,42.641,107.205Z" class="cls-4"/><path d="M23.74,110.625c-.13-2.307.307-3.454,2.88-2.607,2.2.727,3.978,2.195,1.921,4.252s-3.835-.066-3.5-.891C25.276,110.806,23.549,111.062,23.74,110.625Z" class="cls-4"/><path d="M36.456,113.075c-2.164.8-2.56,1.778-1.172,2.415.978.448,2.124.921,2.084-.682S36.456,113.075,36.456,113.075Z" class="cls-4"/><path d="M33.077,113.207s-.492.721-.14.932.773.305.8,0S33.5,112.884,33.077,113.207Z" class="cls-4"/><path d="M35.1,111.651c-.375-1.03-.141-1.288.562-1.382s1.728.3,1.145,1.171-.606.609-1.286.984-.993.984-1.363.188-.346-1.218.192-1.078A2.41,2.41,0,0,0,35.1,111.651Z" class="cls-4"/><circle cx="110.257" cy="49.308" r=".686" class="cls-4"/><circle cx="59.414" cy="99.562" r=".275" class="cls-4"/><circle cx="92.616" cy="120.197" r=".652" class="cls-4"/><circle cx="47.538" cy="109.955" r=".605" class="cls-3"/><circle cx="8.607" cy="121.434" r=".443" class="cls-4"/><circle cx="33.28" cy="92.77" r=".686" class="cls-4"/><circle cx="120.533" cy="22.495" r=".443" class="cls-4"/><circle cx="37.984" cy="8.021" r="1.21" class="cls-3"/><circle cx="7.521" cy="38.542" r=".686" class="cls-4"/></svg>