<svg xmlns="http://www.w3.org/2000/svg" id="images" viewBox="0 0 128 128"><defs><style>.cls-1{fill:#407f47}.cls-2{fill:#fff}.cls-3{fill:#ffec64}</style></defs><title>alert_icons2</title><path d="M91.331,93.518l-6.389,1.135A128.3,128.3,0,0,0,77.465,52.6l6.388-1.136C89.914,65.655,92.558,79.689,91.331,93.518Z" class="cls-1"/><circle cx="89.857" cy="45.332" r="12.796" class="cls-2"/><circle cx="55.712" cy="45.332" r="12.796" class="cls-2"/><circle cx="72.785" cy="28.259" r="12.796" class="cls-2"/><circle cx="72.785" cy="62.404" r="12.796" class="cls-2"/><circle cx="72.785" cy="45.332" r="10.052" class="cls-3"/><path d="M126.11,81.8v46.44H33.89C44.36,113.45,72.78,82.16,126.11,81.8Z" class="cls-1"/><ellipse cx="104.873" cy="110.581" class="cls-2" rx="5.943" ry="5.09"/><ellipse cx="89.016" cy="110.581" class="cls-2" rx="5.943" ry="5.09"/><ellipse cx="96.944" cy="103.79" class="cls-2" rx="5.943" ry="5.09"/><ellipse cx="96.944" cy="117.372" class="cls-2" rx="5.943" ry="5.09"/><ellipse cx="96.944" cy="110.581" class="cls-3" rx="4.668" ry="3.998"/><ellipse cx="78.016" cy="96.801" class="cls-2" rx="4.299" ry=".788" transform="translate(-32.768 40.375) rotate(-24.142)"/><ellipse cx="76.438" cy="96.359" class="cls-2" rx="3.512" ry=".965" transform="translate(-42.024 63.275) rotate(-35.973)"/><ellipse cx="73.486" cy="97.206" class="cls-2" rx="2.285" ry="1.483" transform="translate(-33.33 38.558) rotate(-24.142)"/><ellipse cx="74.699" cy="99.913" class="cls-2" rx="2.285" ry="1.483" transform="translate(-34.331 39.291) rotate(-24.142)"/><ellipse cx="70.169" cy="100.318" class="cls-2" rx="4.299" ry=".788" transform="translate(-34.893 37.474) rotate(-24.142)"/><ellipse cx="70.889" cy="98.846" class="cls-2" rx="3.512" ry=".965" transform="translate(-19.446 17.389) rotate(-12.311)"/><ellipse cx="77.295" cy="98.273" class="cls-2" rx="3.512" ry=".965" transform="translate(-19.177 18.741) rotate(-12.311)"/><ellipse cx="71.747" cy="100.76" class="cls-2" rx="3.512" ry=".965" transform="translate(-45.504 61.359) rotate(-35.973)"/><ellipse cx="74.072" cy="98.514" class="cls-3" rx="3.11" ry="1.073" transform="translate(-33.813 38.912) rotate(-24.142)"/><ellipse cx="116.347" cy="87.89" class="cls-2" rx="3.74" ry="1.87" transform="translate(-8.334 12.286) rotate(-5.836)"/><ellipse cx="106.419" cy="88.905" class="cls-2" rx="3.74" ry="1.87" transform="translate(-8.489 11.282) rotate(-5.836)"/><ellipse cx="111.129" cy="85.915" class="cls-2" rx="3.74" ry="1.87" transform="translate(-8.16 11.746) rotate(-5.836)"/><ellipse cx="111.637" cy="90.879" class="cls-2" rx="3.74" ry="1.87" transform="translate(-8.662 11.823) rotate(-5.836)"/><ellipse cx="111.383" cy="88.397" class="cls-3" rx="2.938" ry="1.469" transform="matrix(0.995, -0.102, 0.102, 0.995, -8.411, 11.784)"/><ellipse cx="54.95" cy="114.602" class="cls-2" rx="2.702" ry="1.828" transform="translate(-64.551 71.328) rotate(-44.476)"/><ellipse cx="49.806" cy="119.654" class="cls-2" rx="2.702" ry="1.828" transform="translate(-69.564 69.17) rotate(-44.476)"/><ellipse cx="50.669" cy="115.388" class="cls-2" rx="2.702" ry="1.828" transform="translate(-66.327 68.553) rotate(-44.476)"/><ellipse cx="54.087" cy="118.869" class="cls-2" rx="2.702" ry="1.828" transform="translate(-67.787 71.945) rotate(-44.476)"/><ellipse cx="52.378" cy="117.128" class="cls-3" rx="2.123" ry="1.436" transform="translate(-67.057 70.249) rotate(-44.476)"/><ellipse cx="69.26" cy="117.128" class="cls-2" rx="4.661" ry="4.173" transform="translate(-66.806 118.545) rotate(-60)"/><ellipse cx="79.16" cy="103.042" class="cls-2" rx="1.653" ry="1.144" transform="translate(-45.431 66.149) rotate(-35.973)"/><ellipse cx="115.457" cy="101.751" class="cls-2" rx="6.111" ry="4.95"/><rect width="2.13" height="46.44" x="126.11" y="81.8" class="cls-1"/></svg>