<svg xmlns="http://www.w3.org/2000/svg" id="images" viewBox="0 0 128 128"><defs><style>.cls-1{fill:#6de8e8}.cls-2,.cls-4{fill:#fff}.cls-3,.cls-5,.cls-6,.cls-7{fill:none}.cls-3,.cls-4,.cls-5{stroke:#fff}.cls-3,.cls-4,.cls-5,.cls-6,.cls-7{stroke-miterlimit:10}.cls-3,.cls-4{stroke-width:.25px}.cls-5,.cls-7{stroke-width:.5px}.cls-6,.cls-7{stroke:#6de8e8}</style></defs><title>alert_icons2</title><polygon points="47.31 101.35 47.42 100.3 0 100.3 0 67.85 11.68 65.13 28.35 78.74 44.41 82.61 50.85 95.77 58.16 94.1 65.03 97.77 68.32 101.35 47.31 101.35" class="cls-1"/><circle cx="47.279" cy="72.599" r="1.147" class="cls-2"/><line x1="47.279" x2="45.613" y1="72.599" y2="69.77" class="cls-3"/><line x1="47.279" x2="50.107" y1="72.599" y2="70.933" class="cls-3"/><line x1="47.279" x2="48.945" y1="72.599" y2="75.427" class="cls-3"/><line x1="47.279" x2="44.451" y1="72.599" y2="74.265" class="cls-3"/><rect width="3.384" height="3.384" x="45.587" y="70.907" class="cls-3" transform="matrix(0.25, -0.968, 0.968, 0.25, -34.846, 100.192)"/><line x1="49.698" x2="50.107" y1="70.238" y2="70.933" class="cls-3"/><line x1="50.802" x2="50.107" y1="70.524" y2="70.933" class="cls-3"/><line x1="50.517" x2="50.107" y1="71.628" y2="70.933" class="cls-3"/><line x1="49.66" x2="48.965" y1="75.053" y2="75.462" class="cls-3"/><line x1="49.375" x2="48.965" y1="76.157" y2="75.462" class="cls-3"/><line x1="48.271" x2="48.965" y1="75.871" y2="75.462" class="cls-3"/><line x1="44.86" x2="44.451" y1="74.96" y2="74.265" class="cls-3"/><line x1="43.756" x2="44.451" y1="74.674" y2="74.265" class="cls-3"/><line x1="44.041" x2="44.451" y1="73.57" y2="74.265" class="cls-3"/><line x1="44.918" x2="45.613" y1="70.18" y2="69.77" class="cls-3"/><line x1="45.204" x2="45.613" y1="69.076" y2="69.77" class="cls-3"/><line x1="46.308" x2="45.613" y1="69.361" y2="69.77" class="cls-3"/><circle cx="80.17" cy="61.416" r="1.435" class="cls-4"/><line x1="80.17" x2="81.448" y1="61.416" y2="55.886" class="cls-3"/><line x1="80.17" x2="85.7" y1="61.416" y2="62.695" class="cls-3"/><line x1="80.17" x2="78.891" y1="61.416" y2="66.947" class="cls-3"/><line x1="80.17" x2="74.639" y1="61.416" y2="60.138" class="cls-3"/><rect width="5.851" height="5.851" x="77.244" y="58.491" class="cls-3" transform="translate(-20.361 51.789) rotate(-31.985)"/><line x1="86.014" x2="85.7" y1="61.336" y2="62.695" class="cls-3"/><line x1="87.058" x2="85.7" y1="63.009" y2="62.695" class="cls-3"/><line x1="85.386" x2="85.7" y1="64.053" y2="62.695" class="cls-3"/><line x1="80.234" x2="78.875" y1="67.329" y2="67.015" class="cls-3"/><line x1="78.561" x2="78.875" y1="68.373" y2="67.015" class="cls-3"/><line x1="77.517" x2="78.875" y1="66.701" y2="67.015" class="cls-3"/><line x1="74.325" x2="74.639" y1="61.496" y2="60.138" class="cls-3"/><line x1="73.281" x2="74.639" y1="59.824" y2="60.138" class="cls-3"/><line x1="74.953" x2="74.639" y1="58.779" y2="60.138" class="cls-3"/><line x1="80.089" x2="81.448" y1="55.572" y2="55.886" class="cls-3"/><line x1="81.762" x2="81.448" y1="54.527" y2="55.886" class="cls-3"/><line x1="82.806" x2="81.448" y1="56.2" y2="55.886" class="cls-3"/><circle cx="94.148" cy="22.802" r="2.321" class="cls-2"/><line x1="94.148" x2="88.572" y1="22.802" y2="19.191" class="cls-3"/><line x1="94.148" x2="97.76" y1="22.802" y2="17.227" class="cls-3"/><line x1="94.148" x2="99.724" y1="22.802" y2="26.414" class="cls-3"/><line x1="94.148" x2="90.536" y1="22.802" y2="28.378" class="cls-3"/><rect width="6.849" height="6.849" x="90.724" y="19.378" class="cls-3" transform="translate(-2.687 20.184) rotate(-12.066)"/><line x1="96.39" x2="97.76" y1="16.339" y2="17.227" class="cls-3"/><line x1="98.647" x2="97.76" y1="15.857" y2="17.227" class="cls-3"/><line x1="99.129" x2="97.76" y1="18.114" y2="17.227" class="cls-3"/><line x1="100.679" x2="99.792" y1="25.089" y2="26.459" class="cls-3"/><line x1="101.162" x2="99.792" y1="27.346" y2="26.459" class="cls-3"/><line x1="98.905" x2="99.792" y1="27.828" y2="26.459" class="cls-3"/><line x1="91.906" x2="90.536" y1="29.266" y2="28.378" class="cls-3"/><line x1="89.649" x2="90.536" y1="29.748" y2="28.378" class="cls-3"/><line x1="89.166" x2="90.536" y1="27.491" y2="28.378" class="cls-3"/><line x1="87.685" x2="88.572" y1="20.56" y2="19.191" class="cls-3"/><line x1="87.202" x2="88.572" y1="18.303" y2="19.191" class="cls-3"/><line x1="89.459" x2="88.572" y1="17.821" y2="19.191" class="cls-3"/><rect width="128" height="27.965" y="100.035" class="cls-2"/><circle cx="27.715" cy="12.888" r="3.015" class="cls-1"/><circle cx="86.852" cy="78.374" r="3.031" class="cls-2"/><circle cx="113.607" cy="55.555" r="2.122" class="cls-2"/><circle cx="18.842" cy="49.144" r="1.151" class="cls-5"/><polygon points="20.873 45.626 16.811 45.626 14.78 49.144 16.811 52.662 20.873 52.662 22.904 49.144 20.873 45.626" class="cls-5"/><line x1="18.842" x2="24.358" y1="49.144" y2="49.144" class="cls-5"/><line x1="18.842" x2="21.626" y1="49.144" y2="53.966" class="cls-5"/><line x1="18.842" x2="16.224" y1="49.144" y2="53.966" class="cls-5"/><line x1="18.842" x2="16.224" y1="49.144" y2="44.609" class="cls-5"/><line x1="18.842" x2="21.626" y1="49.144" y2="44.322" class="cls-5"/><polygon points="20.009 47.123 17.675 47.123 16.508 49.144 17.675 51.165 20.009 51.165 21.175 49.144 20.009 47.123" class="cls-5"/><line x1="18.842" x2="13.326" y1="49.144" y2="49.144" class="cls-5"/><polyline points="21.626 42.586 21.626 44.322 23.253 44.322" class="cls-5"/><polyline points="14.488 44.609 16.224 44.609 16.224 42.981" class="cls-5"/><polyline points="16.224 55.702 16.224 53.966 14.596 53.966" class="cls-5"/><polyline points="23.362 53.966 21.626 53.966 21.626 55.594" class="cls-5"/><polyline points="25.586 47.916 24.358 49.144 25.509 50.295" class="cls-5"/><polyline points="12.098 50.371 13.326 49.144 12.175 47.993" class="cls-5"/><circle cx="56.724" cy="40.064" r="3.959" class="cls-6"/><polygon points="67.387 31.031 54.233 26.313 43.57 35.346 46.062 49.097 59.216 53.814 69.878 44.781 67.387 31.031" class="cls-6"/><line x1="56.724" x2="74.587" y1="40.064" y2="46.47" class="cls-6"/><line x1="56.724" x2="60.14" y1="40.064" y2="58.912" class="cls-6"/><line x1="56.724" x2="42.646" y1="40.064" y2="52.638" class="cls-6"/><line x1="56.724" x2="53.512" y1="40.064" y2="22.338" class="cls-6"/><line x1="56.724" x2="71.339" y1="40.064" y2="27.682" class="cls-6"/><polygon points="62.849 34.875 55.293 32.165 49.168 37.354 50.6 45.253 58.156 47.962 64.28 42.774 62.849 34.875" class="cls-6"/><line x1="56.724" x2="38.862" y1="40.064" y2="33.658" class="cls-6"/><polyline points="73.355 22.061 71.339 27.682 76.609 29.572" class="cls-6"/><polyline points="47.891 20.322 53.512 22.338 55.402 17.068" class="cls-6"/><polyline points="40.63 58.259 42.646 52.638 37.376 50.748" class="cls-6"/><polyline points="65.761 60.927 60.14 58.912 58.25 64.181" class="cls-6"/><polyline points="79.987 43.92 74.587 46.47 76.977 51.533" class="cls-6"/><polyline points="33.462 36.207 38.862 33.658 36.472 28.595" class="cls-6"/><circle cx="109.014" cy="84.465" r="1.487" class="cls-7"/><polygon points="112.555 80.59 107.429 79.46 103.887 83.335 105.472 88.339 110.598 89.469 114.14 85.594 112.555 80.59" class="cls-7"/><line x1="109.014" x2="115.975" y1="84.465" y2="85.999" class="cls-7"/><line x1="109.014" x2="111.186" y1="84.465" y2="91.324" class="cls-7"/><line x1="109.014" x2="104.368" y1="84.465" y2="89.821" class="cls-7"/><line x1="109.014" x2="106.971" y1="84.465" y2="78.013" class="cls-7"/><line x1="109.014" x2="113.868" y1="84.465" y2="79.154" class="cls-7"/><polygon points="111.048 82.239 108.103 81.59 106.069 83.815 106.979 86.69 109.924 87.339 111.958 85.114 111.048 82.239" class="cls-7"/><line x1="109.014" x2="102.052" y1="84.465" y2="82.93" class="cls-7"/><polyline points="114.351 76.963 113.868 79.154 115.922 79.606" class="cls-7"/><polyline points="104.78 77.53 106.971 78.013 107.424 75.96" class="cls-7"/><polyline points="103.885 92.012 104.368 89.821 102.314 89.369" class="cls-7"/><polyline points="113.376 91.807 111.186 91.324 110.733 93.378" class="cls-7"/><polyline points="117.865 84.791 115.975 85.999 117.107 87.771" class="cls-7"/><polyline points="100.162 84.138 102.052 82.93 100.92 81.158" class="cls-7"/><circle cx="105.717" cy="7.567" r=".737" class="cls-2"/><circle cx="29.597" cy="63.688" r="1.616" class="cls-1"/><circle cx="89.236" cy="45.626" r=".737" class="cls-1"/><circle cx="118.74" cy="27.787" r=".737" class="cls-2"/><circle cx="70.945" cy="78.476" r=".737" class="cls-2"/><circle cx="74.953" cy="89.369" r=".737" class="cls-2"/><circle cx="64.236" cy="23.626" r=".737" class="cls-2"/><circle cx="36.434" cy="44.322" r=".737" class="cls-2"/><circle cx="53.986" cy="64.181" r=".737" class="cls-2"/><circle cx="56.351" cy="6.83" r=".737" class="cls-2"/><circle cx="6.369" cy="36.692" r=".737" class="cls-1"/></svg>