<svg xmlns="http://www.w3.org/2000/svg" id="images" viewBox="0 0 128 128"><defs><style>.cls-1{fill:#fff}.cls-2{fill:none;stroke:#407f47;stroke-miterlimit:10;stroke-width:3px}.cls-3{fill:#407f47}</style></defs><title>alert_</title><path d="M105.173,125.825H22.824l.491-33.248C22.2,85.535,26.5,79.164,34.971,75.091l60.08-1.012a17.556,17.556,0,0,1,9.575,18.5Z" class="cls-1"/><ellipse cx="63.999" cy="72.074" class="cls-2" rx="33.484" ry="10.796"/><ellipse cx="63.902" cy="57.77" class="cls-3" rx="41.6" ry="10.016"/><path d="M64,70.217c-21.982,0-44.234-4.23-44.234-12.314S42.018,45.588,64,45.588s44.234,4.23,44.234,12.315S85.982,70.217,64,70.217Zm0-21.592c-25.519,0-41.187,5.4-41.187,9.278S38.481,67.18,64,67.18s41.187-5.4,41.187-9.277S89.518,48.625,64,48.625Z" class="cls-3"/><circle cx="63.999" cy="41.43" r="33.255" class="cls-1"/><path d="M106.562,57.9C106.562,63.865,87.506,68.7,64,68.7S21.435,63.865,21.435,57.9" class="cls-2"/><path d="M90.873,79.972,64,81.857,37.124,79.972,19.917,57.9q43.132,15.735,88.164,0Z" class="cls-3"/><path d="M93.258,28.545,90.941,31.1A20.165,20.165,0,0,0,79.492,21.021l3.84-3.812C87.034,19.318,90.428,22.867,93.258,28.545Z" class="cls-3"/><ellipse cx="63.999" cy="41.43" class="cls-3" rx="26.538" ry="19.71"/><polygon points="63.999 110.729 80.659 81.873 47.338 81.873 63.999 110.729" class="cls-3"/><circle cx="88.251" cy="112.564" r="4.45" class="cls-3"/><rect width="20.488" height="3.863" x="78.007" y="97.61" class="cls-3"/><rect width="20.488" height="2.22" x="78.007" y="103.683" class="cls-3"/><polyline points="34.599 96.306 43.121 104.828 34.668 113.28" class="cls-2"/></svg>