<svg xmlns="http://www.w3.org/2000/svg" viewBox="0 0 128 128"><defs><style>.cls-1{fill:#fff}.cls-2{fill:none;stroke:#407f47;stroke-miterlimit:10;stroke-width:3px}.cls-3{fill:#407f47}</style></defs><title>alert_icons2</title><g id="bg"><rect width="122.04" height="122.27" x="2.98" y="2.865"/></g><g id="images"><path d="M105.173,128H22.824l.491-33.862C22.2,86.965,26.5,80.476,34.971,76.328L95.051,75.3a17.978,17.978,0,0,1,9.575,18.841Z" class="cls-1"/><ellipse cx="63.999" cy="73.255" class="cls-2" rx="33.484" ry="10.995"/><ellipse cx="63.902" cy="58.687" class="cls-3" rx="41.6" ry="10.201"/><path d="M64,71.364c-21.982,0-44.234-4.308-44.234-12.541S42.018,46.28,64,46.28s44.234,4.308,44.234,12.543S85.982,71.364,64,71.364Zm0-21.991c-25.519,0-41.187,5.5-41.187,9.45S38.481,68.271,64,68.271s41.187-5.5,41.187-9.448S89.518,49.373,64,49.373Z" class="cls-3"/><ellipse cx="63.999" cy="42.045" class="cls-1" rx="33.255" ry="33.87"/><path d="M106.562,58.822c0,6.073-19.056,10.995-42.563,10.995S21.435,64.9,21.435,58.822" class="cls-2"/><path d="M90.873,81.3,64,83.22,37.124,81.3,19.917,58.822q43.132,16.026,88.164,0Z" class="cls-3"/><path d="M93.258,28.921l-2.317,2.6A20.276,20.276,0,0,0,79.492,21.258l3.84-3.882C87.034,19.524,90.428,23.139,93.258,28.921Z" class="cls-3"/><ellipse cx="63.999" cy="42.045" class="cls-3" rx="26.538" ry="20.075"/><polygon points="63.999 112.625 80.659 83.235 47.338 83.235 63.999 112.625" class="cls-3"/><ellipse cx="88.251" cy="114.494" class="cls-3" rx="4.45" ry="4.533"/><rect width="20.488" height="3.934" x="78.007" y="99.263" class="cls-3"/><rect width="20.488" height="2.261" x="78.007" y="105.449" class="cls-3"/><polyline points="34.599 97.935 43.121 106.614 34.668 115.223" class="cls-2"/></g></svg>