<svg xmlns="http://www.w3.org/2000/svg" id="images" viewBox="0 0 128 128"><defs><style>.cls-1{fill:none;stroke:#407f47;stroke-miterlimit:10;stroke-width:5px}.cls-2{fill:#fff}.cls-3{fill:#407f47}</style></defs><title>alert_</title><path d="M66.079,51.142c-.491-1.365-1.19-6.108-2.08-7.514a28.224,28.224,0,0,0-3.92-4.877c-6.433-6.433-14.522-8.771-18.067-5.226-2.879,2.879-1.88,8.746,2.031,14.288a28.743,28.743,0,0,0,3.187,3.779" class="cls-1"/><path d="M61.918,51.142c.491-1.365,1.19-6.108,2.081-7.514a28.667,28.667,0,0,1,3.928-4.877c6.424-6.433,14.513-8.771,18.058-5.226,2.88,2.879,1.889,8.746-2.03,14.288a28.743,28.743,0,0,1-3.187,3.779" class="cls-1"/><rect width="73.92" height="6.859" x="27.04" y="49.268" class="cls-2"/><rect width="61.5" height="61.5" x="33.25" y="58.275" class="cls-2"/><rect width="61.5" height="13.542" x="33.25" y="82.254" class="cls-3"/><rect width="13.542" height="61.5" x="57.229" y="58.275" class="cls-3"/></svg>